<svg width="147" height="33" viewBox="0 0 147 33" fill="none" xmlns="http://www.w3.org/2000/svg">
<path d="M2.83998 18.9919V15.7119H14.104L13.624 16.5439C13.624 16.4586 13.624 16.3786 13.624 16.3039C13.624 16.2186 13.624 16.1386 13.624 16.0639C13.624 15.4559 13.48 14.8746 13.192 14.3199C12.904 13.7546 12.456 13.2959 11.848 12.9439C11.2506 12.5813 10.4826 12.3999 9.54398 12.3999C8.60531 12.3999 7.79464 12.6026 7.11198 13.0079C6.43998 13.4026 5.92264 13.9733 5.55998 14.7199C5.20798 15.4666 5.03198 16.3679 5.03198 17.4239C5.03198 18.5119 5.20264 19.4453 5.54398 20.2239C5.89598 20.9919 6.41331 21.5839 7.09598 21.9999C7.78931 22.4159 8.64798 22.6239 9.67198 22.6239C10.3333 22.6239 10.904 22.5653 11.384 22.4479C11.864 22.3199 12.2533 22.1599 12.552 21.9679C12.8613 21.7759 13.096 21.5626 13.256 21.3279C13.416 21.0933 13.512 20.8639 13.544 20.6399H18.44C18.376 21.3546 18.1306 22.0586 17.704 22.7519C17.2773 23.4346 16.6853 24.0533 15.928 24.6079C15.1706 25.1519 14.248 25.5839 13.16 25.9039C12.0826 26.2239 10.8506 26.3839 9.46398 26.3839C7.58664 26.3839 5.94931 26.0106 4.55198 25.2639C3.15464 24.5066 2.07198 23.4666 1.30398 22.1439C0.535978 20.8106 0.151978 19.2746 0.151978 17.5359C0.151978 15.7759 0.541311 14.2346 1.31998 12.9119C2.10931 11.5786 3.20264 10.5439 4.59998 9.80794C6.00798 9.06128 7.63464 8.68794 9.47998 8.68794C11.368 8.68794 13 9.06661 14.376 9.82394C15.752 10.5706 16.8133 11.6213 17.56 12.9759C18.3066 14.3199 18.68 15.8879 18.68 17.6799C18.68 17.9466 18.6746 18.2026 18.664 18.4479C18.6533 18.6933 18.6373 18.8746 18.616 18.9919H2.83998Z" fill="#191826"/>
<path d="M28.4393 26.3839C27.0206 26.3839 25.7139 26.0479 24.5193 25.3759C23.3246 24.6933 22.3646 23.6853 21.6393 22.3519C20.9139 21.0186 20.5513 19.3759 20.5513 17.4239C20.5513 15.5573 20.9193 13.9733 21.6553 12.6719C22.4019 11.3706 23.3726 10.3839 24.5673 9.71194C25.7726 9.02928 27.0633 8.68794 28.4393 8.68794C29.7833 8.68794 31.0099 9.02928 32.1193 9.71194C33.2393 10.3946 34.1353 11.3279 34.8073 12.5119C35.4793 13.6853 35.8153 15.0399 35.8153 16.5759C35.8153 16.6293 35.8153 16.6826 35.8153 16.7359C35.8153 16.7786 35.8153 16.8266 35.8153 16.8799L33.6713 16.9119C33.6713 16.8799 33.6713 16.8479 33.6713 16.8159C33.6713 16.7733 33.6713 16.7359 33.6713 16.7039C33.6713 15.9039 33.4793 15.2159 33.0953 14.6399C32.7113 14.0639 32.2153 13.6213 31.6073 13.3119C30.9993 12.9919 30.3646 12.8319 29.7033 12.8319C28.6046 12.8319 27.6553 13.1999 26.8553 13.9359C26.0553 14.6613 25.6553 15.8239 25.6553 17.4239C25.6553 19.0239 26.0553 20.2026 26.8553 20.9599C27.6659 21.7066 28.6153 22.0799 29.7033 22.0799C30.386 22.0799 31.0313 21.9199 31.6393 21.5999C32.2473 21.2693 32.7379 20.8053 33.1113 20.2079C33.4846 19.6106 33.6713 18.9066 33.6713 18.0959L35.8153 18.2079C35.8153 19.7333 35.4846 21.1146 34.8233 22.3519C34.1726 23.5786 33.2873 24.5599 32.1673 25.2959C31.0579 26.0213 29.8153 26.3839 28.4393 26.3839ZM33.6713 32.9919V9.00794H38.6473V32.9919H33.6713Z" fill="#191826"/>
<path d="M48.0166 26.3199C46.8113 26.3199 45.8193 26.1279 45.0406 25.7439C44.2619 25.3493 43.6486 24.8213 43.2006 24.1599C42.7526 23.4986 42.4379 22.7626 42.2566 21.9519C42.0753 21.1413 41.9846 20.3199 41.9846 19.4879C41.9846 19.1039 41.9846 18.6986 41.9846 18.2719C41.9846 17.8453 41.9846 17.4079 41.9846 16.9599V9.00794H46.9446V16.1759C46.9446 16.5386 46.9446 16.8906 46.9446 17.2319C46.9446 17.5733 46.9446 17.8879 46.9446 18.1759C46.9446 18.8906 47.0246 19.5466 47.1846 20.1439C47.3446 20.7413 47.6379 21.2213 48.0646 21.5839C48.5019 21.9466 49.1206 22.1279 49.9206 22.1279C50.6993 22.1279 51.3606 21.9093 51.9046 21.4719C52.4486 21.0239 52.8646 20.4533 53.1526 19.7599C53.4406 19.0666 53.5846 18.3519 53.5846 17.6159L54.9766 18.7519C54.9766 19.8186 54.8113 20.8106 54.4806 21.7279C54.1606 22.6453 53.7019 23.4506 53.1046 24.1439C52.5073 24.8266 51.7766 25.3599 50.9126 25.7439C50.0593 26.1279 49.0939 26.3199 48.0166 26.3199ZM53.5846 25.9999V9.00794H58.5446V25.9999H53.5846Z" fill="#191826"/>
<path d="M67.5814 26.3519C66.3441 26.3519 65.2401 26.1546 64.2694 25.7599C63.3094 25.3653 62.5574 24.7946 62.0134 24.0479C61.4694 23.3013 61.1974 22.3946 61.1974 21.3279C61.1974 20.1226 61.5281 19.1413 62.1894 18.3839C62.8507 17.6266 63.7254 17.0506 64.8134 16.6559C65.9121 16.2506 67.1014 15.9839 68.3814 15.8559C70.2481 15.6746 71.5334 15.5093 72.2374 15.3599C72.9521 15.2106 73.3094 14.9493 73.3094 14.5759C73.3094 14.5653 73.3094 14.5546 73.3094 14.5439C73.3094 13.9146 73.0054 13.4186 72.3974 13.0559C71.8001 12.6933 70.9627 12.5119 69.8854 12.5119C68.7441 12.5119 67.8694 12.7199 67.2614 13.1359C66.6641 13.5413 66.3654 14.1653 66.3654 15.0079H61.4854C61.4854 13.6426 61.8534 12.4906 62.5894 11.5519C63.3361 10.6133 64.3441 9.90394 65.6134 9.42394C66.8827 8.93328 68.3174 8.68794 69.9174 8.68794C71.4107 8.68794 72.7921 8.91728 74.0614 9.37594C75.3307 9.82394 76.3494 10.5013 77.1174 11.4079C77.8961 12.3146 78.2854 13.4666 78.2854 14.8639C78.2854 15.0879 78.2854 15.3119 78.2854 15.5359C78.2854 15.7493 78.2854 15.9679 78.2854 16.1919V22.2079C78.2854 22.6453 78.2961 23.0666 78.3174 23.4719C78.3494 23.8666 78.4134 24.2293 78.5094 24.5599C78.6161 24.9333 78.7494 25.2426 78.9094 25.4879C79.0694 25.7333 79.2027 25.9039 79.3094 25.9999H74.4294C74.3547 25.9253 74.2374 25.7706 74.0774 25.5359C73.9281 25.3013 73.8001 25.0293 73.6934 24.7199C73.5654 24.3466 73.4694 23.9733 73.4054 23.5999C73.3521 23.2159 73.3254 22.7679 73.3254 22.2559L74.3494 22.9599C74.0507 23.6639 73.5654 24.2719 72.8934 24.7839C72.2321 25.2853 71.4427 25.6746 70.5254 25.9519C69.6187 26.2186 68.6374 26.3519 67.5814 26.3519ZM68.9094 22.6399C69.6881 22.6399 70.4134 22.5013 71.0854 22.2239C71.7681 21.9359 72.3227 21.4879 72.7494 20.8799C73.1761 20.2719 73.3894 19.4773 73.3894 18.4959V16.7839L74.6214 17.9839C73.9174 18.2399 73.1014 18.4533 72.1734 18.6239C71.2561 18.7839 70.3387 18.9119 69.4214 19.0079C68.3334 19.1146 67.5174 19.3013 66.9734 19.5679C66.4401 19.8239 66.1734 20.2613 66.1734 20.8799C66.1734 21.4666 66.4027 21.9093 66.8614 22.2079C67.3201 22.4959 68.0027 22.6399 68.9094 22.6399Z" fill="#191826"/>
<path d="M86.6067 0.991943V25.9999H81.7107V0.991943H86.6067Z" fill="#191826"/>
<path d="M89.928 25.9999V9.00794H94.84V25.9999H89.928ZM92.376 6.23994C91.608 6.23994 90.936 6.03728 90.36 5.63194C89.7947 5.22661 89.512 4.65594 89.512 3.91994C89.512 3.17328 89.7947 2.59728 90.36 2.19194C90.936 1.78661 91.608 1.58394 92.376 1.58394C93.1547 1.58394 93.8267 1.78661 94.392 2.19194C94.968 2.59728 95.256 3.17328 95.256 3.91994C95.256 4.66661 94.968 5.24261 94.392 5.64794C93.8267 6.04261 93.1547 6.23994 92.376 6.23994Z" fill="#191826"/>
<path d="M102.387 22.1119H111.603V25.9999H97.0746V22.3199L106.067 12.7039L106.179 12.8799H97.3946V9.00794H111.411V12.6879L102.499 22.2719L102.387 22.1119Z" fill="#191826"/>
<path d="M115.541 18.9919V15.7119H126.805L126.325 16.5439C126.325 16.4586 126.325 16.3786 126.325 16.3039C126.325 16.2186 126.325 16.1386 126.325 16.0639C126.325 15.4559 126.181 14.8746 125.893 14.3199C125.605 13.7546 125.157 13.2959 124.549 12.9439C123.952 12.5813 123.184 12.3999 122.245 12.3999C121.307 12.3999 120.496 12.6026 119.813 13.0079C119.141 13.4026 118.624 13.9733 118.261 14.7199C117.909 15.4666 117.733 16.3679 117.733 17.4239C117.733 18.5119 117.904 19.4453 118.245 20.2239C118.597 20.9919 119.115 21.5839 119.797 21.9999C120.491 22.4159 121.349 22.6239 122.373 22.6239C123.035 22.6239 123.605 22.5653 124.085 22.4479C124.565 22.3199 124.955 22.1599 125.253 21.9679C125.563 21.7759 125.797 21.5626 125.957 21.3279C126.117 21.0933 126.213 20.8639 126.245 20.6399H131.141C131.077 21.3546 130.832 22.0586 130.405 22.7519C129.979 23.4346 129.387 24.0533 128.629 24.6079C127.872 25.1519 126.949 25.5839 125.861 25.9039C124.784 26.2239 123.552 26.3839 122.165 26.3839C120.288 26.3839 118.651 26.0106 117.253 25.2639C115.856 24.5066 114.773 23.4666 114.005 22.1439C113.237 20.8106 112.853 19.2746 112.853 17.5359C112.853 15.7759 113.243 14.2346 114.021 12.9119C114.811 11.5786 115.904 10.5439 117.301 9.80794C118.709 9.06128 120.336 8.68794 122.181 8.68794C124.069 8.68794 125.701 9.06661 127.077 9.82394C128.453 10.5706 129.515 11.6213 130.261 12.9759C131.008 14.3199 131.381 15.8879 131.381 17.6799C131.381 17.9466 131.376 18.2026 131.365 18.4479C131.355 18.6933 131.339 18.8746 131.317 18.9919H115.541Z" fill="#191826"/>
<path d="M134.037 25.9999V9.00794H139.013V14.8639L137.989 14.2239C138.106 13.4239 138.319 12.6879 138.629 12.0159C138.938 11.3439 139.338 10.7626 139.829 10.2719C140.319 9.77061 140.901 9.38128 141.573 9.10394C142.255 8.82661 143.034 8.68794 143.909 8.68794C144.591 8.68794 145.125 8.74128 145.509 8.84794C145.903 8.94394 146.149 9.01861 146.245 9.07194L145.429 13.5199C145.333 13.4666 145.119 13.3813 144.789 13.2639C144.458 13.1466 144.031 13.0879 143.509 13.0879C142.655 13.0879 141.941 13.2319 141.365 13.5199C140.789 13.8079 140.325 14.1919 139.973 14.6719C139.631 15.1413 139.386 15.6639 139.237 16.2399C139.087 16.8159 139.013 17.3973 139.013 17.9839V25.9999H134.037Z" fill="#191826"/>
</svg>
